<svg xmlns="http://www.w3.org/2000/svg" viewBox="0 0 490 490"><path d="M480 220H300V10c0-5.522-4.477-10-10-10H10C4.477 0 0 4.478 0 10v470c0 5.522 4.477 10 10 10h265c5.523 0 10-4.478 10-10v-30h120v30c0 5.522 4.477 10 10 10h35c5.523 0 10-4.478 10-10v-30h5c5.523 0 10-4.478 10-10V275h5c5.523 0 10-4.478 10-10v-35c0-5.522-4.477-10-10-10zM140 470H20v-85h120v85zm0-105H20V20h120v345zm90 105h-70V20h120v200h-75c-5.523 0-10 4.478-10 10v35c0 5.522 4.477 10 10 10h10v165c0 5.522 4.477 10 10 10h5v20zm35 0h-15v-20h15v20zm175 0h-15v-20h15v20zm15-40H235v-70h220v70zm0-90H235v-65h220v65zm15-85H215v-15h255v15z"/><path d="M330 295h30v20h-30zm0 85h30v20h-30zM180 160h20v40h-20zm-80 0h20v40h-20zM65 415h30v20H65z"/></svg>