<svg height="512" width="512" xmlns="http://www.w3.org/2000/svg"><path d="M512 151h-15v-30h-15v-15h15V61h-15V31H347v45h15v15h-15v45h15v15h-46V54.219c0-12.406-10.093-22.5-22.5-22.5H196v15h97.5c4.135 0 7.5 3.364 7.5 7.5V151H136V54.219c0-4.136 3.364-7.5 7.5-7.5H181v-15h-37.5c-12.406 0-22.5 10.094-22.5 22.5V151H96.209a22.38 22.38 0 001.29-7.5V91h-15V68.5h-15V91h-15V53.5h-15V91h-15v52.5c0 2.629.458 5.153 1.29 7.5H0v75h15v45h15v-45h15v240H30V285.999H15V481h45v-90h136v45h-60v30h-15v15h45v-15h-15v-15h135v15h-15v15h45v-15h-15v-30h-60v-45.001h211v90h45V421h-15v45h-15V226h15v180h15V226h15zM362 46h105v15H362zm120 30v15H377V76zm-105 60h30v-15h-45v-15h105v15h-45v15h60v15H377zm-339.5 7.5V106h45v37.5c0 4.136-3.364 7.5-7.5 7.5H45c-4.136 0-7.5-3.365-7.5-7.5zM226 436h-15v-45.001h15zm226-60.001H60V226h392zM497 211H15v-45h482z"/><path d="M248.5 330.28v-15h-75v-44.281h165v44.281h-75v15h90v-74.281h-195v74.281z"/><path d="M248.5 285.28h15v15h-15zm30 0h15v15h-15zm-59.999 0h15v15h-15zM467 180.999h15v15h-15zm-60 0h45v15h-45zM271.001 61.718h15v15h-15z"/></svg>