<svg height="512" width="512" xmlns="http://www.w3.org/2000/svg"><path xmlns="http://www.w3.org/2000/svg" d="M293.177 181.603c8.017 12.007 21.687 19.934 37.177 19.934s29.159-7.926 37.177-19.934c8.017 12.007 21.687 19.934 37.177 19.934 24.634 0 44.677-20.042 44.677-44.678 0-.763-.13-1.533-.349-2.263-.593-1.923-9.656-30.314-36.332-59.51a7.501 7.501 0 00-11.075 10.119c15.569 17.04 24.644 33.955 29.232 44.153h-57.494a70.098 70.098 0 00-.139-.502c-5.064-18.381-12.398-36.354-21.878-52.903-7.758-13.544-17.25-26.415-28.805-37.074a117.201 117.201 0 00-4.825-4.222c23.487 6.419 44.486 16.787 62.8 31.04a7.5 7.5 0 009.213-11.839C353.925 45.99 308.936 31.86 255.999 31.856h-.029c-35.328.003-67.452 6.402-95.481 19.02-22.549 10.152-42.479 24.311-59.233 42.086-28.169 29.883-37.66 59.582-38.29 61.628-.112.371-.35 1.894-.35 2.271 0 24.635 20.042 44.678 44.678 44.678 15.49 0 29.159-7.926 37.177-19.934 8.017 12.007 21.687 19.934 37.176 19.934 15.49 0 29.159-7.926 37.177-19.934a45.016 45.016 0 0012.822 12.683v96.654H170.66a7.5 7.5 0 000 15h239.442c4.893 0 8.874 3.98 8.874 8.874 0 4.892-3.98 8.873-8.874 8.873H101.899c-4.892 0-8.874-3.98-8.874-8.874s3.98-8.873 8.874-8.873h38.758a7.5 7.5 0 000-15h-38.758c-13.165 0-23.874 10.71-23.874 23.874s10.71 23.873 23.874 23.873h83.392l40.843 57.544-51.154 72.07c-3.463 4.88.15 11.842 6.116 11.842h41.337a7.5 7.5 0 006.116-3.159L256 438.311l27.45 38.673a7.5 7.5 0 006.116 3.159h41.336c5.972 0 9.577-6.966 6.116-11.842l-51.153-72.07 40.843-57.544H410.1c13.165 0 23.874-10.71 23.874-23.874 0-13.164-10.71-23.873-23.874-23.873H280.355v-96.654a44.99 44.99 0 0012.822-12.683zm140.247-17.243c-3.33 12.745-14.942 22.176-28.716 22.176s-25.385-9.432-28.716-22.176h57.432zM266.977 338.687L256 354.152l-10.978-15.465h21.955zM218.56 465.143h-22.941l39.713-55.952 11.471 16.161-28.243 39.791zm97.821 0H293.44l-89.754-126.455h22.941l89.754 126.455zm-39.713-81.87l-11.471-16.161 20.175-28.425h22.941l-31.645 44.586zm53.686-196.736c-13.774 0-25.385-9.432-28.717-22.176h57.433c-3.33 12.744-14.942 22.176-28.716 22.176zM273.69 48.78c.174.039.346.084.52.124.705.163 1.408.334 2.107.517 17.806 4.642 32.821 15.717 44.777 29.444 10.171 11.677 18.141 25.006 24.681 39.004a228.865 228.865 0 0111.969 31.492h-57.159c-.002-.105-.008-.207-.01-.312-.455-17.793-2.486-35.603-6.84-52.88-4.168-16.558-10.46-32.853-19.963-47.112-.065-.098-.132-.203-.197-.3l.115.023zM107.292 186.537c-13.774 0-25.385-9.432-28.717-22.176h57.433c-3.329 12.744-14.942 22.176-28.716 22.176zm31.394-37.372l-.054.194H81.137c4.807-10.69 14.541-28.752 31.52-46.617 15.406-16.209 33.715-29.122 54.419-38.377 8.632-3.858 17.696-7.084 27.165-9.674-.701.58-1.397 1.173-2.09 1.774-17.048 14.797-29.633 34.12-39.226 54.395a236.353 236.353 0 00-14.239 38.305zm42.959 37.372c-13.774 0-25.385-9.432-28.716-22.176h57.432c-3.329 12.744-14.942 22.176-28.716 22.176zm32.704-70.938l-.033.209c-1.354 8.125-2.04 16.338-2.538 24.555a275.278 275.278 0 00-.364 8.996h-57.149c7.227-24.113 31.242-88.54 84.129-100.555-8.511 12.743-18.983 34.163-24.045 66.795zm12.242 28.937c.429-9.708 1.389-19.395 2.998-28.98 3.141-18.74 8.765-37.283 18.454-53.725 2.384-4.045 5.021-7.957 7.998-11.592l.073.087c3.01 3.6 5.639 7.516 8.02 11.558 9.832 16.685 15.418 35.663 18.493 54.691a235.183 235.183 0 012.951 32.749l.001.035h-59.158c.043-1.608.099-3.216.17-4.823zm38.763 146.405h-18.709V200.56c.106.022.214.037.32.059 6.045 1.254 12.351 1.215 18.389-.059v90.381zm3.023-107.123c-7.795 3.596-16.96 3.592-24.755-.001-7.986-3.682-14.076-10.8-16.338-19.457h57.433c-2.264 8.658-8.353 15.777-16.34 19.458z"/><path xmlns="http://www.w3.org/2000/svg" d="M499.435 267.022l-15.203-3.741c-8.765-2.155-17.842 3.341-19.998 12.099l-23.619 95.981h-72.932v.001c-8.096 0-14.683 6.586-14.683 14.683v19.345c0 7.802 6.123 14.185 13.814 14.639l-13.937 50.624c-1.293 4.697 2.378 9.492 7.231 9.492h30.083a7.5 7.5 0 007.234-5.52l14.93-54.551h7.05l14.93 54.551a7.5 7.5 0 007.234 5.52h30.083c4.889 0 8.528-4.781 7.231-9.492l-14.078-51.137a24.282 24.282 0 0018.546-17.979l28.182-114.516c2.155-8.752-3.367-17.85-12.098-19.999zM384.466 465.143h-14.515l12.408-45.071h14.442l-12.335 45.071zm62.827 0l-12.335-45.071H449.4l12.408 45.071h-14.515zm49.675-181.708l-28.182 114.516a9.336 9.336 0 01-9.084 7.119H368v-18.709h78.493a7.497 7.497 0 007.283-5.707L478.8 278.966a1.55 1.55 0 011.847-1.118l15.205 3.741a1.53 1.53 0 011.116 1.846zM159.123 470.653l-13.937-50.625c7.691-.454 13.814-6.835 13.814-14.639v-19.345c0-8.096-6.586-14.683-14.683-14.683H71.385l-23.619-95.982c-2.145-8.717-11.292-14.24-19.997-12.099l-15.203 3.741c-8.737 2.15-14.251 11.258-12.1 19.998l28.182 114.517a24.285 24.285 0 0018.546 17.979l-14.078 51.137c-1.296 4.707 2.362 9.492 7.231 9.492H70.43a7.5 7.5 0 007.234-5.52l14.93-54.551h7.05l14.93 54.551a7.5 7.5 0 007.234 5.52h30.083c4.771.001 8.547-4.71 7.232-9.491zm-94.416-5.51H50.192L62.6 420.072h14.442l-12.335 45.071zm62.826 0l-12.335-45.071h14.442l12.408 45.071h-14.515zm16.466-60.072H52.298a9.336 9.336 0 01-9.084-7.119L15.033 283.436a1.488 1.488 0 01.176-1.154c.149-.247.434-.567.941-.692l15.204-3.741a1.543 1.543 0 011.846 1.117l25.023 101.688a7.5 7.5 0 007.283 5.708h78.493v18.709z"/></svg>