<svg height="512" width="512" xmlns="http://www.w3.org/2000/svg"><path d="M497 181h-45v-45c0-24.813-20.187-45-45-45H105c-24.813 0-45 20.187-45 45v45H15c-8.284 0-15 6.716-15 15v180c0 8.284 6.716 15 15 15h45v15c0 8.284 6.716 15 15 15s15-6.716 15-15v-15h332v15c0 8.284 6.716 15 15 15s15-6.716 15-15v-15h45c8.284 0 15-6.716 15-15V196c0-8.284-6.716-15-15-15zm-75-45v45h-15c-8.284 0-15 6.716-15 15v45H271V121h136c8.271 0 15 6.729 15 15zM90 301v-30h151v30zm181-30h151v30H271zM90 136c0-8.271 6.729-15 15-15h136v120H120v-45c0-8.284-6.716-15-15-15H90zm392 225H30V211h60v30H75c-8.284 0-15 6.716-15 15v60c0 8.284 6.716 15 15 15h362c8.284 0 15-6.716 15-15v-60c0-8.284-6.716-15-15-15h-15v-30h60z"/></svg>