<svg height="586pt" viewBox="-18 -49 586.663 586" width="586pt" xmlns="http://www.w3.org/2000/svg"><path d="M521.953-1.45c-15.48.016-28.023 12.56-28.039 28.044v46.054a43.2 43.2 0 00-20.59-15.832 29.568 29.568 0 00-1.957-28.375 29.577 29.577 0 00-24.98-13.609H398.44a29.572 29.572 0 00-27.977 39.348H240.47V26.59c0-15.485-12.551-28.04-28.04-28.04-15.484 0-28.034 12.555-28.034 28.04v27.59H91.344a42.981 42.981 0 00-35.266 18.457V26.59A28.037 28.037 0 0013.914 1.992 28.026 28.026 0 00.004 26.59v448.898c0 5.508 4.46 9.977 9.976 9.977h530.04c5.507 0 9.976-4.469 9.976-9.977V26.594c-.016-15.485-12.558-28.028-28.043-28.043zm-28.039 345.704a43.207 43.207 0 00-20.59-15.836 29.564 29.564 0 00-1.965-28.367 29.58 29.58 0 00-24.972-13.606H398.44a29.59 29.59 0 00-24.171 12.426 29.57 29.57 0 00-3.81 26.906H240.47V213.875h253.445zM388.75 316.082c.004-5.344 4.336-9.672 9.68-9.68h47.965c5.261.118 9.468 4.418 9.468 9.688a9.686 9.686 0 01-9.468 9.683H398.44c-5.351 0-9.687-4.336-9.691-9.691zm105.164-187.617v65.457H240.47v-65.457zM240.47 345.735h218.168c12.718.015 23.035 10.324 23.047 23.05v11.32H240.469zM398.44 34.788h47.965c5.262.121 9.465 4.426 9.465 9.688 0 5.265-4.203 9.566-9.465 9.683H398.44a9.686 9.686 0 01-9.468-9.683c0-5.262 4.207-9.567 9.468-9.688zm60.196 39.348c12.718.008 23.035 10.324 23.047 23.043v11.328H240.469v-34.37zM184.395 380.105H68.293v-11.32c.016-12.726 10.324-23.035 23.05-23.05h93.048zm-93.051-54.328a42.985 42.985 0 00-35.266 18.461v-37.265h128.317v18.804zm-35.266-38.761v-73.141h128.317v73.14zm0-93.094v-22.754h128.317v22.754zm0 206.14h128.317v22.754H56.078zm128.317-248.851H56.078v-22.746h128.317zM56.078 442.773h128.317v22.747H56.078zM68.293 97.18c.016-12.72 10.324-23.035 23.05-23.043h93.048v34.37H68.293zM19.957 26.594a8.102 8.102 0 013.98-7.172 8.101 8.101 0 018.208 0 8.102 8.102 0 013.98 7.172v438.922h-16.16zm184.395 363.492V26.59a8.077 8.077 0 018.078-8.082 8.078 8.078 0 018.082 8.082v438.93h-16.16zm36.117 9.976h253.445v65.458H240.47zm289.57 65.454h-16.168V26.594a8.081 8.081 0 018.082-8.086 8.082 8.082 0 018.086 8.086zm0 0"/><path d="M400.074 422.816h-42.597c-5.512 0-9.977 4.47-9.977 9.977 0 5.512 4.465 9.98 9.977 9.98h42.597c5.508 0 9.977-4.468 9.977-9.98 0-5.508-4.469-9.977-9.977-9.977zm-42.597-251.648h42.597c5.508 0 9.977-4.469 9.977-9.977 0-5.511-4.469-9.98-9.977-9.98h-42.597c-5.512 0-9.977 4.469-9.977 9.98 0 5.508 4.465 9.977 9.977 9.977zm0 0"/></svg>