<svg xmlns="http://www.w3.org/2000/svg" viewBox="0 0 480.003 480.003"><path d="M296.001 320.003h-24v-72c-.026-22.08-17.92-39.974-40-40h-160c-22.08.026-39.974 17.92-40 40v72h-24a8 8 0 00-8 8v112a8 8 0 008 8h8v24a8 8 0 008 8h32a8 8 0 008-8v-24h176v24a8 8 0 008 8h32a8 8 0 008-8v-24h8a8 8 0 008-8v-112a8 8 0 00-8-8zm-248 144h-16v-16h16v16zm16-32h-48v-96h48v96zm160 0h-144v-48h144v48zm8-112a8 8 0 00-8 8v40h-144v-40a8 8 0 00-8-8h-24v-72c0-13.255 10.745-24 24-24h160c13.255 0 24 10.745 24 24v72h-24zm40 144h-16v-16h16v16zm16-32h-48v-96h48v96zm191.632-298.4l-40-128a8 8 0 00-7.632-5.6h-64a8 8 0 00-7.632 5.6l-40 128a8 8 0 007.632 10.4h64v288h-56a8 8 0 00-8 8v32a8 8 0 008 8h128a8 8 0 008-8v-32a8 8 0 00-8-8h-56v-288h64a8 8 0 007.632-10.4zm-23.632 314.4v16h-112v-16h112zm-117.12-320l35-112h52.24l35 112h-122.24zm-74.88-96h-69.184L157.001 1.755a8 8 0 00-10 0l-37.816 30.248H40.001v144h224v-144zm-112-13.76l17.192 13.76h-34.4l17.208-13.76zm96 141.76h-192v-112h192v112z"/><path d="M240.001 56.003h-176v96h176v-96zm-16 80h-144v-64h144v64z"/></svg>