<svg height="512" width="512" xmlns="http://www.w3.org/2000/svg"><path d="M496 320V72c0-8.836-7.164-16-16-16s-16 7.164-16 16v16H48V72c0-8.836-7.164-16-16-16s-16 7.164-16 16v248c-8.836 0-16 7.164-16 16v104c0 8.836 7.164 16 16 16h40a16 16 0 0012.8-6.4L88 424h336l19.2 25.6A15.999 15.999 0 00456 456h40c8.836 0 16-7.164 16-16V336c0-8.836-7.164-16-16-16zm-32-71.39c-17.206-9.979-30.797-8.61-48-8.61v-32c0-26.467-21.533-48-48-48h-80c-12.284 0-23.501 4.644-32 12.261-8.499-7.617-19.716-12.261-32-12.261h-80c-26.467 0-48 21.533-48 48v32c-17.989 0-30.887-1.315-48 8.61V120h416zM128 240v-32c0-8.822 7.178-16 16-16h80c8.822 0 16 7.178 16 16v32zm144-32c0-8.822 7.178-16 16-16h80c8.822 0 16 7.178 16 16v32H272zM48 304c0-17.645 14.355-32 32-32h352c17.645 0 32 14.355 32 32v16H48zm432 120h-16l-19.2-25.6A15.999 15.999 0 00432 392H80a16 16 0 00-12.8 6.4L48 424H32v-72h448z"/></svg>