<svg xmlns="http://www.w3.org/2000/svg" viewBox="0 0 512 512"><path d="M418.789 351.796h14.999v14.999h-14.999zm24.998 0h14.999v14.999h-14.999zm-95.911 0h60.92v14.999h-60.92z"/><path d="M254.526 328.48v132.19h229.42V328.48h-229.42zm214.421 117.192H269.525V343.478h199.423v102.194z"/><path d="M253.995 176.575v14.999h242.981v34.503h-23.614V202.48h-25.637v14.999h10.638v8.598H422.41v-8.598h11.638V202.48h-26.636v23.597h-76.35V202.48h-25.636v14.999h10.638v8.598H280.11v-8.598h11.638V202.48H265.11v23.597h-11.115v14.999h25.185c-4.289 4.708-6.64 10.767-6.64 17.179 0 6.331 2.286 12.311 6.46 16.989h-25.005v14.999h242.981v178.239H253.995v14.999h242.981v13.472H253.995v14.999h257.98V176.575h-257.98zm44.091 92.229c-5.809-.01-10.539-4.74-10.549-10.549.01-5.799 4.74-10.539 10.549-10.549 5.809.01 10.539 4.75 10.549 10.549-.01 5.809-4.74 10.539-10.549 10.549zm123.216 6.44h-104.13c4.174-4.679 6.46-10.658 6.46-16.989.001-6.413-2.352-12.472-6.64-17.179h104.491c-4.296 4.708-6.639 10.767-6.649 17.179.01 6.331 2.287 12.311 6.468 16.989zm19.08-6.44c-5.799-.01-10.529-4.74-10.549-10.549.02-5.799 4.75-10.539 10.549-10.549 5.809.01 10.539 4.75 10.559 10.549-.02 5.809-4.75 10.539-10.559 10.549zm56.594 6.44h-37.507c4.174-4.679 6.46-10.658 6.47-16.989-.01-6.412-2.363-12.472-6.651-17.179h37.688v34.168z"/><path d="M323.828 301.071h90.821v14.999h-90.821zm62.744-51.095h14.999v14.999h-14.999zm-49.995 0h14.999v14.999h-14.999zm24.998 0h14.999v14.999h-14.999zm53.094-146.616h14.999v14.999h-14.999zm-24.997 0h14.999v14.999h-14.999zm49.995 0h14.999v14.999h-14.999zM30.43 90.436v124.857h44.156V90.436H30.43zm29.157 109.858H45.429v-94.86h14.159v94.86zM30.43 259.289v209.206h44.156V259.289H30.43zm29.157 194.208H45.429v-179.21h14.159v179.21zm46.458-350.137v81.732l48.395.05V103.41l-48.395-.05zm33.396 66.783h-18.398v-18.436l18.398.027v18.409zm0-33.386h-18.398v-18.398h18.398v18.398zm57.6-42.506h14.999v14.999h-14.999zm0 24.997h14.999v14.999h-14.999zm0 24.998h14.999v67.223h-14.999zm.84 115.039h14.999v14.999h-14.999zm-96.911 0h61.917v14.999H100.97zm71.913 0h14.999v14.999h-14.999zM371.824 23.906h14.999v47.495h-14.999z"/><path d="M479.852 80.307H261.076l-19.58 19.58V60.939H.025V497.11h30.277v14.84l14.999.05v-14.89h149.855v14.84l14.999.05v-14.89h31.342V142.406h270.479V112.43l-32.124-32.123zM226.498 445.672H113.544v14.999h112.954v21.442H15.024V244.79h211.474v200.882zm0-215.88H15.024V75.938h211.474v153.854zm270.479-102.384H243.952v-8.765l23.337-23.337h206.352l23.337 23.337v8.765zM332.136 0v67.808h14.998V14.999h46.661v52.809h14.998V0z"/></svg>