<svg height="511pt" viewBox="-80 0 511 511.999" width="511pt" xmlns="http://www.w3.org/2000/svg"><path d="M285.402 132.957a14.998 14.998 0 00-27.836 7.758c0 18.308-14.894 33.2-33.199 33.2-18.308 0-33.199-14.892-33.199-33.2V15a15.006 15.006 0 00-9.262-13.86 15.006 15.006 0 00-16.347 3.255c-1.68 1.683-41.684 41.914-82.207 102.703-23.895 35.843-42.965 71.398-56.676 105.675C9.309 256.195.5 297.77.5 336.332.5 433.195 79.305 512 176.164 512c96.863 0 175.668-78.805 175.668-175.668 0-62-22.352-130.426-66.43-203.375zM176.164 482C95.848 482 30.5 416.652 30.5 336.332c0-79.062 42.137-158.98 77.488-212.105 19.16-28.793 38.469-53.059 53.176-70.317v86.805c0 34.848 28.352 63.2 63.2 63.2 21.304 0 40.183-10.595 51.636-26.794 30.43 57.3 45.832 110.746 45.832 159.211 0 80.32-65.344 145.668-145.668 145.668zm0 0"/><path d="M261.258 253.168h-64.266c-8.285 0-15 6.715-15 14.996-.004 8.285 6.715 15.004 14.996 15.004h28.059L160.96 347.25l-34.836-34.836c-5.855-5.855-15.355-5.855-21.21 0l-34.087 34.082c-5.86 5.86-5.86 15.356-.004 21.215 5.86 5.86 15.356 5.855 21.215 0l23.48-23.477 34.833 34.836a15.003 15.003 0 0021.215 0l74.69-74.687v28.05c0 8.282 6.716 15 15 15 8.286 0 15-6.718 15-15v-64.265c0-8.285-6.714-15-15-15zm0 0"/></svg>