<svg height="512" viewBox="0 0 512.305 512.305" width="512" xmlns="http://www.w3.org/2000/svg"><path d="M512.151 0H.154v413.769h127.875l-2.119 36.275c-.94 16.102 4.868 32.065 15.937 43.799 11.067 11.732 26.666 18.462 42.795 18.462h143.045c16.129 0 31.728-6.729 42.795-18.462 11.068-11.733 16.877-27.697 15.937-43.8l-2.119-36.274h127.853V0zm-30 30v80.007H30.154V30zM348.659 473.257c-5.504 5.835-12.952 9.048-20.973 9.048H184.641c-8.021 0-15.469-3.213-20.973-9.048-5.504-5.834-8.277-13.457-7.81-21.464l9.971-170.672h27.754v22.999h30v-22.999h65.165v22.999h30v-22.999h27.749l9.971 170.671c.468 8.008-2.305 15.631-7.809 21.465zm-59.91-222.136h-65.165v-16.758c0-17.966 14.616-32.582 32.583-32.582 17.966 0 32.582 14.616 32.582 32.582zm93.797 132.648l-7.749-132.647h-56.048v-16.758c0-34.508-28.074-62.582-62.583-62.582-34.508 0-62.582 28.074-62.582 62.582v16.758h-56.053l-7.749 132.647H30.154V140.007h451.997v243.762z"/><path d="M55.157 55.003h30.002v30H55.157zm60.004 0h30.002v30h-30.002zm60.004 0h30.001v30h-30.001zm34.167 375.94l69.613-92.817 24 18-69.613 92.817zm-5.89-91.326h30v30.002h-30zm77.226 74.191h30v30.002h-30z"/></svg>