<svg xmlns="http://www.w3.org/2000/svg" viewBox="0 0 447.096 447.096"><path d="M244.257 182.457h-41.8v-42.4c0-5.5-4.5-10-10-10s-10 4.5-10 10v42.4h-42.4c-5.5 0-10 4.5-10 10s4.5 10 10 10h42.4v41.9c0 5.5 4.5 10 10 10s10-4.5 10-10v-41.9h41.8c5.5 0 10-4.5 10-10s-4.4-10-10-10z"/><path d="M299.157 84.457c-59.2-59.1-155.5-59.1-214.6 0-59.1 59.1-59.1 155.4 0 214.6 59.3 59.1 155.3 59.1 214.6 0 59.1-59.1 59.1-155.4 0-214.6zm-14.2 200.5c-51.4 51.3-135 51.4-186.3 0-51.4-51.4-51.4-135 0-186.3 51.5-51.3 134.8-51.3 186.3 0 51.4 51.3 51.4 134.9 0 186.3z"/><path d="M436.357 384.157l-.3-.3-85-85.2c59-87.9 35.6-207.1-52.3-266.1s-207.1-35.6-266.1 52.3-35.6 207.1 52.3 266.1c27.8 18.7 60 29.7 93.4 32.1 4.5.3 9 .5 13.4.5 38.1 0 75.3-11.3 106.9-32.5l85 85c14.4 14.6 37.8 14.7 52.3.4 14.6-14.4 14.7-37.8.4-52.3zm-142.5-54.2c-76.4 56.5-184 40.3-240.4-36-56.4-76.3-40.3-184 36.1-240.4 76.4-56.4 184-40.3 240.4 36.1 44.9 60.8 44.9 143.8-.2 204.6-10.1 13.5-22.2 25.6-35.9 35.7zm128.1 92c-3.2 3.2-7.5 5-12.1 5-4.5 0-8.8-1.8-12-5l-83-83c4.3-3.6 8.5-7.4 12.6-11.5s7.9-8.3 11.5-12.6l83 83c6.6 6.6 6.6 17.4 0 24.1z"/></svg>